<svg xmlns="http://www.w3.org/2000/svg" xmlns:xlink="http://www.w3.org/1999/xlink" version="1.1" x="0px" y="0px" viewBox="0 0 100 125" style="enable-background:new 0 0 100 100;" xml:space="preserve"><path d="M16.9,43.4v25.9h7.6h0.9h5.8h0.9h5h0.9h5.4h0.9h5.4h0.9h5.2h0.9h5.5H63h5.4h0.9h5.4h0.9h7.6V43.4H16.9z M19.2,67V47h3.4  v13.8h2V67H19.2z M25.4,67v-6.1h2V47h1.9v13.8h2V67H25.4z M32.1,67v-6.1h2V47h1v13.8h2V67H32.1z M37.9,67v-6.1h2V47h1.5v13.8h2V67  H37.9z M44.2,67v-6.1h2V47h1.5v13.8h2V67H44.2z M50.4,67v-6.1h2V47h1.5v13.8h1.8V67H50.4z M56.6,67v-6.1h2.1V47h1.5v13.8h2V67H56.6z   M63,67v-6.1h2V47h1.5v13.8h2V67H63z M69.2,67v-6.1h2V47h1.5v13.8h2V67H69.2z M80.8,67h-5.3v-6.1h2V47h3.4V67z"/><path d="M50,30.7c-14.2,0-26.5,2.4-33.1,5.9v1.8v3.8h66.1v-3.8v-1.8C76.5,33.1,64.2,30.7,50,30.7z M21.7,39.9h-1.9V38h1.9V39.9z   M24.8,39.9h-1.9V38h1.9V39.9z M27.9,39.9H26V38h1.9V39.9z M77.1,39.9h-1.9V38h1.9V39.9z M80.2,39.9h-1.9V38h1.9V39.9z"/></svg>